<?xml version="1.0" encoding="utf-8"?>
<!-- Generator: Adobe Illustrator 15.0.2, SVG Export Plug-In . SVG Version: 6.00 Build 0)  -->
<!DOCTYPE svg PUBLIC "-//W3C//DTD SVG 1.1//EN" "http://www.w3.org/Graphics/SVG/1.1/DTD/svg11.dtd">
<svg version="1.1" id="Capa_1" xmlns="http://www.w3.org/2000/svg" xmlns:xlink="http://www.w3.org/1999/xlink" x="0px" y="0px"
	 width="512px" height="512px" viewBox="0 0 512 512" enable-background="new 0 0 512 512" xml:space="preserve">
<g>
	<g>
		<path fill="#FFFFFF" d="M58.136,213.994c16.46,0,31.329-9.883,37.695-25.066C122.12,126.293,183.936,82.151,256,82.151
			c39.719,0,76.132,13.614,105.325,36.193l-22.882,3.542c-7.816,1.211-13.896,7.413-14.955,15.25
			c-1.062,7.833,3.16,15.433,10.368,18.671l125.834,56.611c5.516,2.477,11.906,2.001,16.99-1.266
			c5.075-3.272,8.158-8.888,8.192-14.93l0.652-138.651c0.044-7.888-5.098-14.863-12.636-17.162
			c-7.55-2.299-15.707,0.619-20.075,7.185L435.471,73.66C389.229,28.139,325.865,0,256,0C150.066,0,58.987,64.692,20.142,156.638
			c-5.395,12.745-4.035,27.338,3.603,38.868C31.383,207.04,44.295,213.994,58.136,213.994z"/>
		<path fill="#FFFFFF" d="M488.256,316.496c-7.639-11.535-20.552-18.488-34.392-18.488c-16.46,0-31.328,9.883-37.695,25.066
			C389.879,385.708,328.063,429.85,256,429.85c-39.72,0-76.133-13.613-105.328-36.193l22.883-3.54
			c7.815-1.212,13.896-7.413,14.957-15.251c1.06-7.832-3.161-15.434-10.369-18.672L52.31,299.582
			c-5.517-2.476-11.906-2.002-16.991,1.267c-5.075,3.272-8.159,8.888-8.191,14.929l-0.654,138.651
			c-0.044,7.888,5.097,14.863,12.635,17.162c7.55,2.3,15.708-0.62,20.075-7.187l17.344-26.066
			C122.77,483.86,186.134,512,255.999,512c105.936,0,197.012-64.69,235.856-156.637
			C497.254,342.619,495.894,328.026,488.256,316.496z"/>
	</g>
</g>
</svg>
