<?xml version="1.0" encoding="utf-8"?>
<!-- Generator: Adobe Illustrator 15.0.2, SVG Export Plug-In . SVG Version: 6.00 Build 0)  -->
<!DOCTYPE svg PUBLIC "-//W3C//DTD SVG 1.1//EN" "http://www.w3.org/Graphics/SVG/1.1/DTD/svg11.dtd">
<svg version="1.1" id="Capa_1" xmlns="http://www.w3.org/2000/svg" xmlns:xlink="http://www.w3.org/1999/xlink" x="0px" y="0px"
	 width="512px" height="512px" viewBox="0 0 512 512" enable-background="new 0 0 512 512" xml:space="preserve">
<g>
	<g>
		<path fill="#FFFFFF" d="M256,271.127c63.398,0,114.797-60.157,114.797-134.365C370.798,33.856,319.4,2.398,256,2.398
			c-63.402,0-114.797,31.458-114.797,134.364C141.205,210.97,192.6,271.127,256,271.127z"/>
		<path fill="#FFFFFF" d="M509.496,468.895L451.58,338.428c-2.649-5.971-7.303-10.922-13.096-13.938l-89.883-46.789
			c-1.982-1.03-4.382-0.83-6.164,0.519c-25.422,19.228-55.312,29.392-86.437,29.392c-31.129,0-61.017-10.164-86.439-29.392
			c-1.787-1.349-4.187-1.549-6.169-0.519L73.516,324.49c-5.795,3.016-10.444,7.965-13.095,13.938L2.504,468.895
			c-3.993,8.995-3.175,19.286,2.19,27.536c5.362,8.248,14.437,13.171,24.276,13.171h454.059c9.839,0,18.916-4.925,24.278-13.173
			C512.668,488.181,513.489,477.886,509.496,468.895z"/>
	</g>
</g>
</svg>
