<svg id="Layer_1" data-name="Layer 1" xmlns="http://www.w3.org/2000/svg" xmlns:xlink="http://www.w3.org/1999/xlink" width="156" height="30" viewBox="0 0 156 30"><defs><clipPath id="clip-path"><rect y="0.5" width="156" height="29.07" style="fill:none"/></clipPath></defs><title>logo-vertex</title><g style="clip-path:url(#clip-path)"><path d="M13.2,29.4A2.8,2.8,0,0,0,16,26.6V3.4a2.8,2.8,0,0,0-5.6,0V26.6a2.8,2.8,0,0,0,2.8,2.8" style="fill:#b1b2b3"/><path d="M23.7,24.9a2.8,2.8,0,0,0,2.8-2.8V7.9a2.8,2.8,0,0,0-5.6,0V22.1a2.8,2.8,0,0,0,2.8,2.8" style="fill:#b1b2b3"/><path d="M2.8,24.9a2.8,2.8,0,0,0,2.8-2.8V7.9A2.8,2.8,0,0,0,0,7.9V22.1a2.8,2.8,0,0,0,2.8,2.8" style="fill:#b1b2b3"/><path d="M2.9,25.1a2.8,2.8,0,0,0,2.3-1.5L15.7,4.6A2.8,2.8,0,0,0,13.2.5a2.8,2.8,0,0,0-2.3,1.5L0.3,21a2.8,2.8,0,0,0,2.6,4.1" style="fill:#003d79"/><path d="M13.3,29.5a2.8,2.8,0,0,0,2.3-1.5L26.1,9A2.8,2.8,0,0,0,25,5.3a2.8,2.8,0,0,0-3.8,1.1L10.7,25.4a2.8,2.8,0,0,0,2.6,4.1" style="fill:#c1d82f"/><path d="M111,7.6h-5.2V26.3a0.6,0.6,0,0,1-.6.6h-4.2a0.6,0.6,0,0,1-.6-0.6V7.6H95A0.6,0.6,0,0,1,94.4,7V3.6A0.6,0.6,0,0,1,95,3h16a0.6,0.6,0,0,1,.7.6V7a0.6,0.6,0,0,1-.7.6" style="fill:#003d79"/><path d="M152.5,27h-5.1a0.8,0.8,0,0,1-.8-0.5l-4.2-6.8-3.8,6.6a1,1,0,0,1-.8.6h-4.8a0.4,0.4,0,0,1-.5-0.4V26.3l6.7-11.6L132.5,3.6V3.4a0.5,0.5,0,0,1,.5-0.4h5.2a1.1,1.1,0,0,1,.8.6l4,6.5,3.6-6.5a1,1,0,0,1,.8-0.6h4.8a0.5,0.5,0,0,1,.5.4V3.6L145.8,15l6.9,11.3v0.3a0.4,0.4,0,0,1-.4.3" style="fill:#003d79"/><path d="M92.7,26.2l-4.9-9.1A6.5,6.5,0,0,0,92,10.7V10.3C92,4.6,87.8,3,84.8,3H74.9a0.6,0.6,0,0,0-.6.6V26.3a0.6,0.6,0,0,0,.6.6h4.2a0.6,0.6,0,0,0,.6-0.6V18.1h2.6l4.3,8.2a0.8,0.8,0,0,0,.6.6h4.9a0.4,0.4,0,0,0,.5-0.4,0.8,0.8,0,0,0-.1-0.4M86.5,10.7c0,1.8-.4,3-3.8,3H79.8V7.4h3.1c2.8,0,3.6,1.4,3.6,2.9v0.4Z" style="fill:#003d79"/><path d="M69.8,7.3a0.6,0.6,0,0,0,.6-0.6v-3A0.6,0.6,0,0,0,69.8,3H56.4a0.6,0.6,0,0,0-.6.6V26.3a0.6,0.6,0,0,0,.6.6H69.8a0.6,0.6,0,0,0,.6-0.7v-3a0.6,0.6,0,0,0-.6-0.6h-8a0.6,0.6,0,0,1-.6-0.6V16.9h8.4a0.6,0.6,0,0,0,.6-0.6V13.2a0.6,0.6,0,0,0-.6-0.6H61.2V8a0.6,0.6,0,0,1,.6-0.6h8Z" style="fill:#003d79"/><path d="M128.7,7.3a0.6,0.6,0,0,0,.6-0.6v-3a0.6,0.6,0,0,0-.6-0.6H115.3a0.6,0.6,0,0,0-.6.6V26.3a0.6,0.6,0,0,0,.6.6h13.5a0.6,0.6,0,0,0,.6-0.7v-3a0.6,0.6,0,0,0-.6-0.6h-8a0.6,0.6,0,0,1-.6-0.6V16.9h8.4a0.6,0.6,0,0,0,.6-0.6V13.2a0.6,0.6,0,0,0-.6-0.6h-8.4V8a0.6,0.6,0,0,1,.6-0.6h8Z" style="fill:#003d79"/><path d="M53.2,3.5A0.5,0.5,0,0,0,52.6,3H48.1a0.7,0.7,0,0,0-.6.6l-4,18.6c-0.1.4-.2,0.5-0.5,0.5s-0.4-.1-0.5-0.5l-4-18.6A0.7,0.7,0,0,0,37.9,3H33.4a0.5,0.5,0,0,0-.6.5V3.7l5.3,21.8a1.9,1.9,0,0,0,2,1.4H46a1.9,1.9,0,0,0,2-1.4h0L53.2,3.7V3.5" style="fill:#003d79"/><path d="M156,4a1.1,1.1,0,1,1-1.8-.8A1.1,1.1,0,0,1,156,4m-0.2,0a0.9,0.9,0,0,0-.3-0.6A0.9,0.9,0,0,0,154,4a0.9,0.9,0,0,0,1.8,0m-0.4.6h-0.2L155,4.2h-0.2V4.6h-0.2V3.4h0.7a0.3,0.3,0,0,1,.1.3,0.3,0.3,0,0,1-.2.3h0Zm-0.3-.8h-0.4V3.9h0.4" style="fill:#003d79"/></g></svg>