<?xml version="1.0" encoding="utf-8"?>
<!-- Generator: Adobe Illustrator 15.0.2, SVG Export Plug-In . SVG Version: 6.00 Build 0)  -->
<!DOCTYPE svg PUBLIC "-//W3C//DTD SVG 1.1//EN" "http://www.w3.org/Graphics/SVG/1.1/DTD/svg11.dtd">
<svg version="1.1" id="Layer_1" xmlns="http://www.w3.org/2000/svg" xmlns:xlink="http://www.w3.org/1999/xlink" x="0px" y="0px"
	 width="117px" height="21px" viewBox="23.417 7.083 117 21" enable-background="new 23.417 7.083 117 21" xml:space="preserve">
<g>
	<path fill="#FFFFFF" d="M108.919,11.763h-3.928v13.293c0,0.234-0.204,0.427-0.455,0.427h-3.171c-0.251,0-0.454-0.192-0.454-0.427
		V11.763h-4.078c-0.25,0-0.452-0.191-0.452-0.426V8.92c0-0.235,0.202-0.427,0.452-0.427h12.085c0.245-0.039,0.481,0.117,0.52,0.35
		c0.006,0.025,0.01,0.052,0.008,0.077v2.417c0.004,0.236-0.197,0.429-0.447,0.432C108.973,11.77,108.946,11.768,108.919,11.763
		 M140.263,25.554h-3.851c-0.266,0.019-0.507-0.128-0.605-0.355l-3.171-4.834l-2.871,4.692c-0.11,0.232-0.337,0.395-0.607,0.426
		h-3.624c-0.161,0.041-0.326-0.051-0.367-0.204c-0.008-0.025-0.013-0.051-0.012-0.078v-0.143l5.062-8.247l-5.062-7.891V8.777
		c0.039-0.167,0.197-0.289,0.379-0.284h3.928c0.264,0.043,0.487,0.201,0.604,0.426l3.021,4.621l2.719-4.621
		c0.107-0.234,0.335-0.396,0.605-0.426h3.626c0.181-0.004,0.34,0.117,0.379,0.284V8.92l-5.213,8.104l5.211,8.033v0.213
		c-0.037,0.131-0.162,0.219-0.302,0.215 M95.097,24.986l-3.702-6.471c1.996-0.706,3.279-2.544,3.174-4.547v-0.284
		c0-4.053-3.174-5.19-5.438-5.19h-7.477c-0.252,0-0.455,0.191-0.455,0.427v16.137c0,0.235,0.203,0.426,0.455,0.426h3.172
		c0.25,0,0.455-0.19,0.455-0.426v-5.83h1.963l3.25,5.83c0.05,0.213,0.229,0.378,0.454,0.426h3.697
		c0.164,0.042,0.329-0.05,0.368-0.202c0.008-0.027,0.01-0.053,0.009-0.08c0.001-0.101-0.022-0.195-0.076-0.282 M90.416,13.967
		c0,1.279-0.302,2.132-2.871,2.132h-2.19v-4.478h2.341c2.114,0,2.719,0.995,2.719,2.061L90.416,13.967L90.416,13.967z M77.802,11.55
		c0.25,0,0.453-0.19,0.453-0.426V8.991c0.042-0.232-0.125-0.452-0.371-0.492c-0.028-0.004-0.057-0.005-0.082-0.005H67.68
		c-0.25,0-0.454,0.191-0.454,0.427v16.137c0,0.235,0.204,0.426,0.454,0.426h10.122c0.25,0.003,0.455-0.186,0.459-0.421
		c0-0.027-0.002-0.051-0.006-0.074v-2.133c0-0.234-0.204-0.43-0.453-0.43h-6.043c-0.25,0-0.453-0.188-0.453-0.426v-3.624h6.344
		c0.251,0,0.454-0.192,0.454-0.428v-2.204c0-0.236-0.204-0.426-0.454-0.426h-6.344v-3.27c0-0.236,0.203-0.426,0.453-0.426h6.043
		V11.55z M122.288,11.55c0.251,0,0.452-0.19,0.452-0.426l0,0V8.991c0-0.236-0.201-0.426-0.452-0.426l0,0h-10.122
		c-0.25,0-0.454,0.19-0.454,0.426v16.065c0,0.234,0.204,0.427,0.454,0.427h10.196c0.249,0.003,0.456-0.186,0.46-0.423
		c0-0.025-0.002-0.05-0.006-0.074v-2.132c0-0.235-0.206-0.429-0.456-0.429l0,0h-6.044c-0.248,0-0.453-0.19-0.453-0.426v-3.626h6.342
		c0.253,0,0.457-0.192,0.457-0.428l0,0v-2.204c0-0.236-0.204-0.426-0.457-0.426l0,0h-6.34v-3.269c0-0.236,0.204-0.426,0.455-0.426
		h6.042L122.288,11.55z M65.264,8.849c0.003-0.196-0.162-0.358-0.37-0.362c-0.029,0-0.056,0.002-0.083,0.007h-3.399
		c-0.235,0.03-0.421,0.205-0.453,0.427l-3.022,13.222c-0.075,0.283-0.15,0.355-0.377,0.355c-0.227,0-0.302-0.072-0.378-0.355
		L54.161,8.92c-0.032-0.222-0.218-0.397-0.454-0.427h-3.398c-0.204-0.039-0.404,0.084-0.446,0.278
		c-0.005,0.025-0.008,0.051-0.007,0.077v0.143l4.003,15.497c0.18,0.632,0.817,1.053,1.51,0.995h4.457
		c0.693,0.058,1.33-0.364,1.51-0.995l0,0l3.928-15.497V8.849"/>
	<g>
		<path fill="#FFFFFF" d="M24.937,24.544c0.236,0.117,0.504,0.179,0.773,0.179l0.072-0.002c0.562-0.033,1.086-0.356,1.353-0.838
			l8.527-14.52c0.2-0.359,0.24-0.782,0.108-1.182c-0.132-0.398-0.423-0.726-0.815-0.92c-0.238-0.117-0.503-0.178-0.77-0.178
			c-0.556,0.033-1.079,0.356-1.345,0.836l-8.608,14.522C23.812,23.194,24.125,24.144,24.937,24.544z"/>
		<polygon fill="#FFFFFF" points="36.397,17.086 36.397,10.48 31.854,18.216 31.854,24.823 		"/>
		<path fill="#FFFFFF" d="M40.371,21.439v1.755c0,1.182,1.018,2.14,2.272,2.14c1.255,0,2.271-0.958,2.271-2.14v-9.492L40.371,21.439
			z"/>
		<path fill="#FFFFFF" d="M43.435,10.673c-0.235-0.122-0.511-0.189-0.788-0.189c-0.607,0-1.166,0.31-1.459,0.809L32.67,25.8
			c-0.202,0.361-0.244,0.784-0.112,1.183c0.132,0.4,0.422,0.727,0.816,0.922c0.237,0.117,0.504,0.179,0.773,0.179l0.072-0.001
			c0.562-0.035,1.088-0.356,1.353-0.837l8.526-14.521C44.492,11.998,44.204,11.089,43.435,10.673z"/>
		<path fill="#FFFFFF" d="M27.96,13.802v-1.45c0-1.181-1.018-2.139-2.271-2.139c-1.255,0-2.272,0.958-2.272,2.139v9.114
			L27.96,13.802z"/>
	</g>
</g>
</svg>
